<?xml version="1.0" encoding="UTF-8" standalone="no"?>
<!-- Generator: Adobe Illustrator 19.2.1, SVG Export Plug-In . SVG Version: 6.00 Build 0)  -->

<svg
   xmlns:dc="http://purl.org/dc/elements/1.1/"
   xmlns:cc="http://creativecommons.org/ns#"
   xmlns:rdf="http://www.w3.org/1999/02/22-rdf-syntax-ns#"
   xmlns:svg="http://www.w3.org/2000/svg"
   xmlns="http://www.w3.org/2000/svg"
   xmlns:sodipodi="http://sodipodi.sourceforge.net/DTD/sodipodi-0.dtd"
   xmlns:inkscape="http://www.inkscape.org/namespaces/inkscape"
   version="1.1"
   id="layer"
   x="0px"
   y="0px"
   viewBox="0 0 815.46442 249.90001"
   xml:space="preserve"
   inkscape:version="0.91 r13725"
   sodipodi:docname="university-of-stuttgart-seeklogo.com.svg"
   width="815.46442"
   height="249.90001"><metadata
     id="metadata333"><rdf:RDF><cc:Work
         rdf:about=""><dc:format>image/svg+xml</dc:format><dc:type
           rdf:resource="http://purl.org/dc/dcmitype/StillImage" /><dc:title></dc:title></cc:Work></rdf:RDF></metadata><defs
     id="defs331" /><sodipodi:namedview
     pagecolor="#ffffff"
     bordercolor="#666666"
     borderopacity="1"
     objecttolerance="10"
     gridtolerance="10"
     guidetolerance="10"
     inkscape:pageopacity="0"
     inkscape:pageshadow="2"
     inkscape:window-width="1268"
     inkscape:window-height="708"
     id="namedview329"
     showgrid="false"
     fit-margin-top="0"
     fit-margin-left="0"
     fit-margin-right="0"
     fit-margin-bottom="0"
     inkscape:zoom="0.36196319"
     inkscape:cx="246.82465"
     inkscape:cy="155.26339"
     inkscape:window-x="0"
     inkscape:window-y="0"
     inkscape:window-maximized="0"
     inkscape:current-layer="g5" /><style
     type="text/css"
     id="style3">
	.st0{fill:#333333;}
</style><g
     id="g5"
     transform="translate(237.06441,-357.82204)"><g
       id="g7"
       transform="translate(-432.36441,287.32204)"><g
         id="g9"><path
           class="st0"
           d="m 320.1,188.9 c -3.7,0 -6.8,3 -6.8,6.8 0,3.7 3,6.8 6.8,6.8 3.7,0 6.8,-3 6.8,-6.8 -0.1,-3.8 -3.1,-6.8 -6.8,-6.8 z"
           id="path11"
           inkscape:connector-curvature="0"
           style="fill:#333333" /><path
           class="st0"
           d="m 337.1,185.1 c 0,-3.7 -3,-6.8 -6.8,-6.8 -3.7,0 -6.8,3 -6.8,6.8 0,3.7 3,6.8 6.8,6.8 3.8,-0.1 6.8,-3.1 6.8,-6.8 z"
           id="path13"
           inkscape:connector-curvature="0"
           style="fill:#333333" /><path
           class="st0"
           d="m 337.1,206.1 c 0,-3.7 -3,-6.8 -6.8,-6.8 -3.7,0 -6.8,3 -6.8,6.8 0,3.7 3,6.8 6.8,6.8 3.8,0 6.8,-3 6.8,-6.8 z"
           id="path15"
           inkscape:connector-curvature="0"
           style="fill:#333333" /><path
           class="st0"
           d="m 342,188.5 c -3.7,0 -6.8,3 -6.8,6.8 0,3.7 3,6.8 6.8,6.8 3.7,0 6.8,-3 6.8,-6.8 0,-3.7 -3.1,-6.8 -6.8,-6.8 z"
           id="path17"
           inkscape:connector-curvature="0"
           style="fill:#333333" /><path
           class="st0"
           d="m 354.7,177.9 c -3.7,0 -6.8,3 -6.8,6.8 0,3.7 3,6.8 6.8,6.8 3.8,0 6.8,-3 6.8,-6.8 0,-3.8 -3.1,-6.8 -6.8,-6.8 z"
           id="path19"
           inkscape:connector-curvature="0"
           style="fill:#333333" /><path
           class="st0"
           d="m 354.6,199.6 c -3.7,0 -6.8,3 -6.8,6.8 0,3.7 3,6.8 6.8,6.8 3.7,0 6.8,-3 6.8,-6.8 0,-3.7 -3.1,-6.8 -6.8,-6.8 z"
           id="path21"
           inkscape:connector-curvature="0"
           style="fill:#333333" /><path
           class="st0"
           d="m 341.5,223.7 c 3.7,0 6.8,-3 6.8,-6.8 0,-3.7 -3,-6.8 -6.8,-6.8 -3.7,0 -6.8,3 -6.8,6.8 0.1,3.7 3.1,6.8 6.8,6.8 z"
           id="path23"
           inkscape:connector-curvature="0"
           style="fill:#333333" /><circle
           class="st0"
           cx="331"
           cy="230"
           r="6.8000002"
           id="circle25"
           style="fill:#333333" /><path
           class="st0"
           d="m 320.5,251.1 c 3.7,0 6.8,-3 6.8,-6.8 0,-3.8 -3,-6.8 -6.8,-6.8 -3.7,0 -6.8,3 -6.8,6.8 0,3.8 3,6.8 6.8,6.8 z"
           id="path27"
           inkscape:connector-curvature="0"
           style="fill:#333333" /><circle
           class="st0"
           cx="369"
           cy="195.3"
           r="6.8000002"
           id="circle29"
           style="fill:#333333" /><path
           class="st0"
           d="m 368.3,211.1 c -3.7,0 -6.8,3 -6.8,6.8 0,3.7 3,6.8 6.8,6.8 3.7,0 6.8,-3 6.8,-6.8 -0.1,-3.7 -3.1,-6.8 -6.8,-6.8 z"
           id="path31"
           inkscape:connector-curvature="0"
           style="fill:#333333" /><path
           class="st0"
           d="m 384.1,201 c -3.7,0 -6.8,3 -6.8,6.8 0,3.7 3,6.8 6.8,6.8 3.8,0 6.8,-3 6.8,-6.8 0,-3.8 -3.1,-6.8 -6.8,-6.8 z"
           id="path33"
           inkscape:connector-curvature="0"
           style="fill:#333333" /><path
           class="st0"
           d="m 389,230.6 c 0,-3.7 -3.1,-6.8 -6.8,-6.8 -3.7,0 -6.7,3 -6.7,6.8 0,3.8 3,6.8 6.7,6.8 3.8,0 6.8,-3.1 6.8,-6.8 z"
           id="path35"
           inkscape:connector-curvature="0"
           style="fill:#333333" /><path
           class="st0"
           d="m 372.6,240.7 c 0,-3.7 -3,-6.8 -6.8,-6.8 -3.7,0 -6.8,3 -6.8,6.8 0,3.7 3,6.8 6.8,6.8 3.8,0 6.8,-3 6.8,-6.8 z"
           id="path37"
           inkscape:connector-curvature="0"
           style="fill:#333333" /><path
           class="st0"
           d="m 342.6,250.2 c 3.7,0 6.8,-3 6.8,-6.8 0,-3.7 -3,-6.8 -6.8,-6.8 -3.7,0 -6.8,3 -6.8,6.8 0,3.8 3.1,6.8 6.8,6.8 z"
           id="path39"
           inkscape:connector-curvature="0"
           style="fill:#333333" /><path
           class="st0"
           d="m 332,266 c 3.7,0 6.8,-3 6.8,-6.8 0,-3.7 -3,-6.8 -6.8,-6.8 -3.7,0 -6.8,3 -6.8,6.8 0,3.8 3.1,6.8 6.8,6.8 z"
           id="path41"
           inkscape:connector-curvature="0"
           style="fill:#333333" /><path
           class="st0"
           d="m 320.4,282.8 c 3.7,0 6.8,-3 6.8,-6.8 0,-3.7 -3,-6.8 -6.8,-6.8 -3.7,0 -6.8,3 -6.8,6.8 0,3.8 3.1,6.8 6.8,6.8 z"
           id="path43"
           inkscape:connector-curvature="0"
           style="fill:#333333" /><path
           class="st0"
           d="m 360,228.4 c 0,-3.7 -3,-6.8 -6.8,-6.8 -3.7,0 -6.7,3 -6.7,6.8 0,3.7 3,6.8 6.7,6.8 3.8,0 6.8,-3 6.8,-6.8 z"
           id="path45"
           inkscape:connector-curvature="0"
           style="fill:#333333" /><path
           class="st0"
           d="m 399.9,213.3 c -3.7,0 -6.8,3 -6.8,6.8 0,3.7 3,6.8 6.8,6.8 3.7,0 6.8,-3 6.8,-6.8 0,-3.8 -3,-6.8 -6.8,-6.8 z"
           id="path47"
           inkscape:connector-curvature="0"
           style="fill:#333333" /><path
           class="st0"
           d="m 397.4,237.7 c -3.7,0 -6.7,3 -6.7,6.8 0,3.7 3,6.8 6.7,6.8 3.7,0 6.8,-3 6.8,-6.8 0,-3.8 -3.1,-6.8 -6.8,-6.8 z"
           id="path49"
           inkscape:connector-curvature="0"
           style="fill:#333333" /><path
           class="st0"
           d="m 414,252.2 c -3.7,0 -6.8,3 -6.8,6.8 0,3.7 3,6.8 6.8,6.8 3.7,0 6.8,-3 6.8,-6.8 0,-3.7 -3,-6.8 -6.8,-6.8 z"
           id="path51"
           inkscape:connector-curvature="0"
           style="fill:#333333" /><path
           class="st0"
           d="m 393.5,261.7 c -3.7,0 -6.8,3 -6.8,6.8 0,3.7 3,6.8 6.8,6.8 3.7,0 6.8,-3 6.8,-6.8 0,-3.7 -3,-6.8 -6.8,-6.8 z"
           id="path53"
           inkscape:connector-curvature="0"
           style="fill:#333333" /><path
           class="st0"
           d="m 386.2,254.6 c 0,-3.7 -3.1,-6.8 -6.8,-6.8 -3.7,0 -6.7,3 -6.7,6.8 0,3.7 3,6.8 6.7,6.8 3.7,0 6.8,-3 6.8,-6.8 z"
           id="path55"
           inkscape:connector-curvature="0"
           style="fill:#333333" /><circle
           class="st0"
           cx="369.29999"
           cy="272.60001"
           r="6.8000002"
           id="circle57"
           style="fill:#333333" /><path
           class="st0"
           d="m 344.8,281.9 c 3.7,0 6.8,-3 6.8,-6.8 0,-3.7 -3,-6.8 -6.8,-6.8 -3.7,0 -6.8,3 -6.8,6.8 0,3.8 3.1,6.8 6.8,6.8 z"
           id="path59"
           inkscape:connector-curvature="0"
           style="fill:#333333" /><path
           class="st0"
           d="m 362.1,257.6 c 0,-3.7 -3,-6.8 -6.8,-6.8 -3.7,0 -6.8,3 -6.8,6.8 0,3.7 3,6.8 6.8,6.8 3.8,-0.1 6.8,-3.1 6.8,-6.8 z"
           id="path61"
           inkscape:connector-curvature="0"
           style="fill:#333333" /><path
           class="st0"
           d="m 409.3,277.6 c -3.7,0 -6.8,3 -6.8,6.8 0,3.7 3,6.8 6.8,6.8 3.7,0 6.8,-3 6.8,-6.8 -0.1,-3.8 -3.1,-6.8 -6.8,-6.8 z"
           id="path63"
           inkscape:connector-curvature="0"
           style="fill:#333333" /><path
           class="st0"
           d="m 383.6,282.4 c -3.7,0 -6.8,3.1 -6.8,6.8 0,3.7 3,6.8 6.8,6.8 3.7,0 6.8,-3 6.8,-6.8 0,-3.7 -3,-6.8 -6.8,-6.8 z"
           id="path65"
           inkscape:connector-curvature="0"
           style="fill:#333333" /><path
           class="st0"
           d="m 372.5,302.1 c -3.7,0 -6.8,3 -6.8,6.8 0,3.8 3,6.8 6.8,6.8 3.7,0 6.8,-3 6.8,-6.8 0,-3.7 -3,-6.8 -6.8,-6.8 z"
           id="path67"
           inkscape:connector-curvature="0"
           style="fill:#333333" /><path
           class="st0"
           d="m 358.1,285.2 c -3.7,0 -6.8,3.1 -6.8,6.8 0,3.7 3,6.8 6.8,6.8 3.7,0 6.8,-3 6.8,-6.8 0,-3.7 -3,-6.8 -6.8,-6.8 z"
           id="path69"
           inkscape:connector-curvature="0"
           style="fill:#333333" /><path
           class="st0"
           d="m 346.4,305.5 c -3.7,0 -6.8,3 -6.8,6.8 0,3.7 3,6.8 6.8,6.8 3.7,0 6.8,-3 6.8,-6.8 -0.1,-3.7 -3.1,-6.8 -6.8,-6.8 z"
           id="path71"
           inkscape:connector-curvature="0"
           style="fill:#333333" /><path
           class="st0"
           d="m 332.6,286.9 c -3.7,0 -6.8,3 -6.8,6.8 0,3.7 3,6.8 6.8,6.8 3.7,0 6.8,-3 6.8,-6.8 0,-3.8 -3.1,-6.8 -6.8,-6.8 z"
           id="path73"
           inkscape:connector-curvature="0"
           style="fill:#333333" /><circle
           class="st0"
           cx="320.5"
           cy="313.60001"
           r="6.8000002"
           id="circle75"
           style="fill:#333333" /><path
           class="st0"
           d="m 307.5,286.9 c -3.7,0 -6.8,3 -6.8,6.8 0,3.7 3.1,6.8 6.8,6.8 3.7,0 6.8,-3 6.8,-6.8 0,-3.8 -3.1,-6.8 -6.8,-6.8 z"
           id="path77"
           inkscape:connector-curvature="0"
           style="fill:#333333" /><circle
           class="st0"
           cx="293.89999"
           cy="312.39999"
           r="6.8000002"
           id="circle79"
           style="fill:#333333" /><path
           class="st0"
           d="m 268.4,302.1 c -3.7,0 -6.8,3.1 -6.8,6.8 0,3.7 3,6.8 6.8,6.8 3.7,0 6.8,-3 6.8,-6.8 0,-3.7 -3,-6.8 -6.8,-6.8 z"
           id="path81"
           inkscape:connector-curvature="0"
           style="fill:#333333" /><path
           class="st0"
           d="m 416.8,226.6 c -3.7,0 -6.8,3 -6.8,6.8 0,3.7 3,6.8 6.8,6.8 3.7,0 6.8,-3 6.8,-6.8 0,-3.8 -3,-6.8 -6.8,-6.8 z"
           id="path83"
           inkscape:connector-curvature="0"
           style="fill:#333333" /><path
           class="st0"
           d="m 433.8,240.5 c -3.7,0 -6.8,3 -6.8,6.8 0,3.7 3,6.8 6.8,6.8 3.7,0 6.8,-3 6.8,-6.8 -0.1,-3.7 -3.1,-6.8 -6.8,-6.8 z"
           id="path85"
           inkscape:connector-curvature="0"
           style="fill:#333333" /><circle
           class="st0"
           cx="437.20001"
           cy="221.60001"
           r="6.8000002"
           id="circle87"
           style="fill:#333333" /><path
           class="st0"
           d="m 418.4,201.4 c -3.7,0 -6.8,3 -6.8,6.8 0,3.7 3,6.8 6.8,6.8 3.7,0 6.8,-3 6.8,-6.8 0,-3.8 -3.1,-6.8 -6.8,-6.8 z"
           id="path89"
           inkscape:connector-curvature="0"
           style="fill:#333333" /><path
           class="st0"
           d="m 438.3,188.6 c -3.7,0 -6.8,3 -6.8,6.8 0,3.7 3,6.8 6.8,6.8 3.7,0 6.8,-3 6.8,-6.8 0,-3.8 -3.1,-6.8 -6.8,-6.8 z"
           id="path91"
           inkscape:connector-curvature="0"
           style="fill:#333333" /><circle
           class="st0"
           cx="418.39999"
           cy="183.10001"
           r="6.8000002"
           id="circle93"
           style="fill:#333333" /><circle
           class="st0"
           cx="437.10001"
           cy="169.3"
           r="6.8000002"
           id="circle95"
           style="fill:#333333" /><circle
           class="st0"
           cx="416.70001"
           cy="157.60001"
           r="6.8000002"
           id="circle97"
           style="fill:#333333" /><path
           class="st0"
           d="m 433.8,150 c 3.7,0 6.8,-3 6.8,-6.8 0,-3.7 -3,-6.8 -6.8,-6.8 -3.7,0 -6.8,3 -6.8,6.8 0,3.8 3,6.8 6.8,6.8 z"
           id="path99"
           inkscape:connector-curvature="0"
           style="fill:#333333" /><path
           class="st0"
           d="m 407.3,132.2 c 0,3.7 3,6.7 6.8,6.7 3.7,0 6.8,-3 6.8,-6.7 0,-3.7 -3,-6.8 -6.8,-6.8 -3.8,0 -6.8,3.1 -6.8,6.8 z"
           id="path101"
           inkscape:connector-curvature="0"
           style="fill:#333333" /><circle
           class="st0"
           cx="409.20001"
           cy="106.9"
           r="6.8000002"
           id="circle103"
           style="fill:#333333" /><path
           class="st0"
           d="m 386.9,122.5 c 0,3.7 3,6.8 6.8,6.8 3.7,0 6.8,-3 6.8,-6.8 0,-3.7 -3,-6.8 -6.8,-6.8 -3.8,0.1 -6.8,3.1 -6.8,6.8 z"
           id="path105"
           inkscape:connector-curvature="0"
           style="fill:#333333" /><path
           class="st0"
           d="m 379.3,129.7 c -3.7,0 -6.8,3 -6.8,6.8 0,3.7 3,6.8 6.8,6.8 3.7,0 6.8,-3 6.8,-6.8 -0.1,-3.8 -3.1,-6.8 -6.8,-6.8 z"
           id="path107"
           inkscape:connector-curvature="0"
           style="fill:#333333" /><circle
           class="st0"
           cx="365.89999"
           cy="150.2"
           r="6.8000002"
           id="circle109"
           style="fill:#333333" /><path
           class="st0"
           d="m 355.4,126.7 c -3.7,0 -6.8,3 -6.8,6.8 0,3.7 3,6.8 6.8,6.8 3.7,0 6.8,-3 6.8,-6.8 0,-3.7 -3,-6.8 -6.8,-6.8 z"
           id="path111"
           inkscape:connector-curvature="0"
           style="fill:#333333" /><path
           class="st0"
           d="m 344.7,109.2 c -3.7,0 -6.8,3 -6.8,6.8 0,3.7 3,6.8 6.8,6.8 3.7,0 6.8,-3 6.8,-6.8 0,-3.7 -3.1,-6.8 -6.8,-6.8 z"
           id="path113"
           inkscape:connector-curvature="0"
           style="fill:#333333" /><path
           class="st0"
           d="m 332.1,124.9 c -3.7,0 -6.8,3 -6.8,6.8 0,3.7 3,6.8 6.8,6.8 3.7,0 6.8,-3 6.8,-6.8 -0.1,-3.8 -3.1,-6.8 -6.8,-6.8 z"
           id="path115"
           inkscape:connector-curvature="0"
           style="fill:#333333" /><path
           class="st0"
           d="m 308,125 c -3.7,0 -6.8,3 -6.8,6.8 0,3.8 3,6.8 6.8,6.8 3.7,0 6.8,-3 6.8,-6.8 0,-3.7 -3,-6.8 -6.8,-6.8 z"
           id="path117"
           inkscape:connector-curvature="0"
           style="fill:#333333" /><circle
           class="st0"
           cx="297.89999"
           cy="147.7"
           r="6.8000002"
           id="circle119"
           style="fill:#333333" /><path
           class="st0"
           d="m 302.5,161.3 c 0,3.7 3,6.8 6.8,6.8 3.7,0 6.8,-3 6.8,-6.8 0,-3.7 -3,-6.8 -6.8,-6.8 -3.8,0 -6.8,3 -6.8,6.8 z"
           id="path121"
           inkscape:connector-curvature="0"
           style="fill:#333333" /><circle
           class="st0"
           cx="287.29999"
           cy="162.60001"
           r="6.8000002"
           id="circle123"
           style="fill:#333333" /><path
           class="st0"
           d="m 272.2,166.4 c -3.7,0 -6.8,3 -6.8,6.8 0,3.7 3,6.8 6.8,6.8 3.7,0 6.8,-3 6.8,-6.8 0,-3.7 -3.1,-6.8 -6.8,-6.8 z"
           id="path125"
           inkscape:connector-curvature="0"
           style="fill:#333333" /><path
           class="st0"
           d="m 256.4,190.5 c 3.7,0 6.8,-3 6.8,-6.8 0,-3.7 -3,-6.8 -6.8,-6.8 -3.7,0 -6.8,3 -6.8,6.8 0,3.7 3,6.8 6.8,6.8 z"
           id="path127"
           inkscape:connector-curvature="0"
           style="fill:#333333" /><path
           class="st0"
           d="m 251.3,160.4 c 0,3.7 3,6.8 6.8,6.8 3.7,0 6.8,-3 6.8,-6.8 0,-3.7 -3,-6.8 -6.8,-6.8 -3.7,0 -6.8,3.1 -6.8,6.8 z"
           id="path129"
           inkscape:connector-curvature="0"
           style="fill:#333333" /><path
           class="st0"
           d="m 233.7,170.9 c 0,3.7 3,6.8 6.7,6.8 3.7,0 6.8,-3 6.8,-6.8 0,-3.7 -3,-6.8 -6.8,-6.8 -3.7,0 -6.7,3.1 -6.7,6.8 z"
           id="path131"
           inkscape:connector-curvature="0"
           style="fill:#333333" /><circle
           class="st0"
           cx="222"
           cy="183"
           r="6.8000002"
           id="circle133"
           style="fill:#333333" /><path
           class="st0"
           d="m 203.2,176 c 3.7,0 6.8,-3 6.8,-6.7 0,-3.7 -3,-6.8 -6.8,-6.8 -3.7,0 -6.8,3 -6.8,6.8 0.1,3.6 3.1,6.7 6.8,6.7 z"
           id="path135"
           inkscape:connector-curvature="0"
           style="fill:#333333" /><path
           class="st0"
           d="m 223.7,164.4 c 3.7,0 6.8,-3 6.8,-6.8 0,-3.7 -3,-6.8 -6.8,-6.8 -3.7,0 -6.8,3 -6.8,6.8 0,3.8 3.1,6.8 6.8,6.8 z"
           id="path137"
           inkscape:connector-curvature="0"
           style="fill:#333333" /><path
           class="st0"
           d="m 206.8,136.4 c -3.7,0 -6.8,3 -6.8,6.8 0,3.7 3,6.8 6.8,6.8 3.7,0 6.8,-3 6.8,-6.8 -0.1,-3.8 -3.1,-6.8 -6.8,-6.8 z"
           id="path139"
           inkscape:connector-curvature="0"
           style="fill:#333333" /><path
           class="st0"
           d="m 226.6,139 c 3.7,0 6.8,-3 6.8,-6.8 0,-3.7 -3,-6.8 -6.8,-6.8 -3.7,0 -6.8,3 -6.8,6.8 0,3.8 3.1,6.8 6.8,6.8 z"
           id="path141"
           inkscape:connector-curvature="0"
           style="fill:#333333" /><path
           class="st0"
           d="m 243,139.7 c -3.7,0 -6.8,3 -6.8,6.8 0,3.7 3,6.8 6.8,6.8 3.8,0 6.8,-3 6.8,-6.8 0,-3.8 -3.1,-6.8 -6.8,-6.8 z"
           id="path143"
           inkscape:connector-curvature="0"
           style="fill:#333333" /><circle
           class="st0"
           cx="261.29999"
           cy="136.39999"
           r="6.8000002"
           id="circle145"
           style="fill:#333333" /><circle
           class="st0"
           cx="274.5"
           cy="150.3"
           r="6.8000002"
           id="circle147"
           style="fill:#333333" /><circle
           class="st0"
           cx="239.60001"
           cy="195.3"
           r="6.8000002"
           id="circle149"
           style="fill:#333333" /><path
           class="st0"
           d="m 320.5,140.1 c -3.7,0 -6.8,3 -6.8,6.8 0,3.8 3.1,6.8 6.8,6.8 3.7,0 6.8,-3 6.8,-6.8 0,-3.7 -3.1,-6.8 -6.8,-6.8 z"
           id="path151"
           inkscape:connector-curvature="0"
           style="fill:#333333" /><path
           class="st0"
           d="m 369.3,111.5 c -3.7,0 -6.8,3 -6.8,6.8 0,3.7 3,6.8 6.8,6.8 3.7,0 6.8,-3 6.8,-6.8 0,-3.7 -3.1,-6.8 -6.8,-6.8 z"
           id="path153"
           inkscape:connector-curvature="0"
           style="fill:#333333" /><path
           class="st0"
           d="m 376.9,101.6 c 0,3.7 3,6.8 6.8,6.8 3.7,0 6.8,-3 6.8,-6.8 0,-3.7 -3,-6.8 -6.8,-6.8 -3.8,0.1 -6.8,3.1 -6.8,6.8 z"
           id="path155"
           inkscape:connector-curvature="0"
           style="fill:#333333" /><path
           class="st0"
           d="m 358.2,105.7 c 3.7,0 6.8,-3 6.8,-6.8 0,-3.7 -3,-6.8 -6.8,-6.8 -3.7,0 -6.8,3 -6.8,6.8 0,3.8 3,6.8 6.8,6.8 z"
           id="path157"
           inkscape:connector-curvature="0"
           style="fill:#333333" /><path
           class="st0"
           d="m 372.6,88.8 c 3.7,0 6.8,-3 6.8,-6.8 0,-3.7 -3,-6.8 -6.8,-6.8 -3.7,0 -6.7,3 -6.7,6.8 -0.1,3.8 3,6.8 6.7,6.8 z"
           id="path159"
           inkscape:connector-curvature="0"
           style="fill:#333333" /><path
           class="st0"
           d="m 346.4,85.5 c 3.7,0 6.8,-3 6.8,-6.8 0,-3.7 -3,-6.8 -6.8,-6.8 -3.7,0 -6.8,3 -6.8,6.8 0.1,3.8 3.1,6.8 6.8,6.8 z"
           id="path161"
           inkscape:connector-curvature="0"
           style="fill:#333333" /><path
           class="st0"
           d="m 320.4,84.1 c 3.7,0 6.8,-3 6.8,-6.8 0,-3.7 -3.1,-6.8 -6.8,-6.8 -3.7,0 -6.8,3 -6.8,6.8 0.1,3.8 3.1,6.8 6.8,6.8 z"
           id="path163"
           inkscape:connector-curvature="0"
           style="fill:#333333" /><circle
           class="st0"
           cx="293.89999"
           cy="78.699997"
           r="6.8000002"
           id="circle165"
           style="fill:#333333" /><path
           class="st0"
           d="m 268.4,88.9 c 3.7,0 6.8,-3 6.8,-6.8 0,-3.7 -3,-6.8 -6.8,-6.8 -3.8,0 -6.8,3 -6.8,6.8 0.1,3.7 3.1,6.8 6.8,6.8 z"
           id="path167"
           inkscape:connector-curvature="0"
           style="fill:#333333" /><path
           class="st0"
           d="m 307.3,104.2 c 3.7,0 6.8,-3 6.8,-6.8 0,-3.7 -3,-6.8 -6.8,-6.8 -3.7,0 -6.8,3 -6.8,6.8 0.1,3.7 3.1,6.8 6.8,6.8 z"
           id="path169"
           inkscape:connector-curvature="0"
           style="fill:#333333" /><circle
           class="st0"
           cx="282.29999"
           cy="99"
           r="6.8000002"
           id="circle171"
           style="fill:#333333" /><path
           class="st0"
           d="m 271.2,111.6 c -3.7,0 -6.8,3 -6.8,6.8 0,3.7 3,6.8 6.8,6.8 3.7,0 6.8,-3 6.8,-6.8 -0.1,-3.7 -3.1,-6.8 -6.8,-6.8 z"
           id="path173"
           inkscape:connector-curvature="0"
           style="fill:#333333" /><path
           class="st0"
           d="m 246.7,129.3 c 3.7,0 6.8,-3 6.8,-6.8 0,-3.7 -3,-6.8 -6.8,-6.8 -3.7,0 -6.8,3 -6.8,6.8 0.1,3.8 3.1,6.8 6.8,6.8 z"
           id="path175"
           inkscape:connector-curvature="0"
           style="fill:#333333" /><path
           class="st0"
           d="m 232.4,113.5 c 3.7,0 6.8,-3 6.8,-6.8 0,-3.7 -3,-6.8 -6.8,-6.8 -3.7,0 -6.8,3 -6.8,6.8 0.1,3.8 3.1,6.8 6.8,6.8 z"
           id="path177"
           inkscape:connector-curvature="0"
           style="fill:#333333" /><path
           class="st0"
           d="m 256.9,108.5 c 3.7,0 6.8,-3 6.8,-6.8 0,-3.7 -3,-6.8 -6.8,-6.8 -3.7,0 -6.8,3 -6.8,6.8 0.1,3.8 3.1,6.8 6.8,6.8 z"
           id="path179"
           inkscape:connector-curvature="0"
           style="fill:#333333" /><path
           class="st0"
           d="m 278.3,133.4 c 0,3.7 3,6.8 6.8,6.8 3.7,0 6.8,-3 6.8,-6.8 0,-3.7 -3,-6.8 -6.8,-6.8 -3.8,0 -6.8,3.1 -6.8,6.8 z"
           id="path181"
           inkscape:connector-curvature="0"
           style="fill:#333333" /><path
           class="st0"
           d="m 295.5,109.2 c -3.7,0 -6.8,3 -6.8,6.8 0,3.7 3,6.8 6.8,6.8 3.7,0 6.8,-3 6.8,-6.8 0,-3.8 -3,-6.8 -6.8,-6.8 z"
           id="path183"
           inkscape:connector-curvature="0"
           style="fill:#333333" /><path
           class="st0"
           d="m 332.6,104.1 c 3.7,0 6.8,-3 6.8,-6.8 0,-3.7 -3,-6.8 -6.8,-6.8 -3.7,0 -6.8,3 -6.8,6.8 0,3.8 3,6.8 6.8,6.8 z"
           id="path185"
           inkscape:connector-curvature="0"
           style="fill:#333333" /><circle
           class="st0"
           cx="320.39999"
           cy="114.9"
           r="6.8000002"
           id="circle187"
           style="fill:#333333" /><circle
           class="st0"
           cx="353"
           cy="162.5"
           r="6.8000002"
           id="circle189"
           style="fill:#333333" /><path
           class="st0"
           d="m 341.7,167.4 c -3.7,0 -6.8,3 -6.8,6.8 0,3.7 3,6.8 6.8,6.8 3.7,0 6.8,-3 6.8,-6.8 -0.1,-3.8 -3.1,-6.8 -6.8,-6.8 z"
           id="path191"
           inkscape:connector-curvature="0"
           style="fill:#333333" /><circle
           class="st0"
           cx="331.10001"
           cy="161"
           r="6.8000002"
           id="circle193"
           style="fill:#333333" /><circle
           class="st0"
           cx="320.39999"
           cy="173.7"
           r="6.8000002"
           id="circle195"
           style="fill:#333333" /><circle
           class="st0"
           cx="309.79999"
           cy="185.10001"
           r="6.8000002"
           id="circle197"
           style="fill:#333333" /><path
           class="st0"
           d="m 299,167.5 c -3.7,0 -6.8,3 -6.8,6.8 0,3.7 3,6.8 6.8,6.8 3.7,0 6.8,-3 6.8,-6.8 -0.1,-3.7 -3.1,-6.8 -6.8,-6.8 z"
           id="path199"
           inkscape:connector-curvature="0"
           style="fill:#333333" /><circle
           class="st0"
           cx="298.29999"
           cy="195.39999"
           r="6.8000002"
           id="circle201"
           style="fill:#333333" /><circle
           class="st0"
           cx="285.70001"
           cy="184.89999"
           r="6.8000002"
           id="circle203"
           style="fill:#333333" /><path
           class="st0"
           d="m 285.8,213.3 c 3.7,0 6.8,-3 6.8,-6.8 0,-3.7 -3,-6.8 -6.8,-6.8 -3.7,0 -6.8,3 -6.8,6.8 0,3.8 3,6.8 6.8,6.8 z"
           id="path205"
           inkscape:connector-curvature="0"
           style="fill:#333333" /><circle
           class="st0"
           cx="271.5"
           cy="195.3"
           r="6.8000002"
           id="circle207"
           style="fill:#333333" /><circle
           class="st0"
           cx="272.60001"
           cy="218"
           r="6.8000002"
           id="circle209"
           style="fill:#333333" /><path
           class="st0"
           d="m 256.4,214.4 c 3.7,0 6.8,-3 6.8,-6.8 0,-3.7 -3,-6.8 -6.8,-6.8 -3.7,0 -6.8,3.1 -6.8,6.8 0,3.8 3.1,6.8 6.8,6.8 z"
           id="path211"
           inkscape:connector-curvature="0"
           style="fill:#333333" /><circle
           class="st0"
           cx="258.29999"
           cy="230.89999"
           r="6.8000002"
           id="circle213"
           style="fill:#333333" /><path
           class="st0"
           d="m 243.1,251.4 c 3.7,0 6.8,-3 6.8,-6.8 0,-3.7 -3.1,-6.8 -6.8,-6.8 -3.7,0 -6.8,3 -6.8,6.8 0,3.8 3,6.8 6.8,6.8 z"
           id="path215"
           inkscape:connector-curvature="0"
           style="fill:#333333" /><path
           class="st0"
           d="m 230.3,233.5 c 0,-3.7 -3,-6.8 -6.8,-6.8 -3.8,0 -6.8,3 -6.8,6.8 0,3.7 3,6.8 6.8,6.8 3.8,-0.1 6.8,-3.1 6.8,-6.8 z"
           id="path217"
           inkscape:connector-curvature="0"
           style="fill:#333333" /><circle
           class="st0"
           cx="203.3"
           cy="221.7"
           r="6.8000002"
           id="circle219"
           style="fill:#333333" /><circle
           class="st0"
           cx="222"
           cy="208.3"
           r="6.8000002"
           id="circle221"
           style="fill:#333333" /><path
           class="st0"
           d="m 202.1,202 c 3.7,0 6.8,-3 6.8,-6.8 0,-3.7 -3,-6.8 -6.8,-6.8 -3.7,0 -6.8,3 -6.8,6.8 0.1,3.8 3.1,6.8 6.8,6.8 z"
           id="path223"
           inkscape:connector-curvature="0"
           style="fill:#333333" /><path
           class="st0"
           d="m 240.5,226.8 c 3.7,0 6.8,-3 6.8,-6.8 0,-3.7 -3,-6.8 -6.8,-6.8 -3.7,0 -6.8,3 -6.8,6.8 0,3.8 3.1,6.8 6.8,6.8 z"
           id="path225"
           inkscape:connector-curvature="0"
           style="fill:#333333" /><circle
           class="st0"
           cx="206.7"
           cy="247.2"
           r="6.8000002"
           id="circle227"
           style="fill:#333333" /><path
           class="st0"
           d="m 233.2,259 c 0,-3.7 -3,-6.8 -6.8,-6.8 -3.7,0 -6.8,3 -6.8,6.8 0,3.7 3,6.7 6.8,6.7 3.7,0.1 6.8,-2.9 6.8,-6.7 z"
           id="path229"
           inkscape:connector-curvature="0"
           style="fill:#333333" /><path
           class="st0"
           d="m 316.5,206.1 c 0,-3.7 -3,-6.8 -6.8,-6.8 -3.7,0 -6.8,3 -6.8,6.8 0,3.7 3,6.8 6.8,6.8 3.8,0 6.8,-3 6.8,-6.8 z"
           id="path231"
           inkscape:connector-curvature="0"
           style="fill:#333333" /><circle
           class="st0"
           cx="320.39999"
           cy="217.2"
           r="6.8000002"
           id="circle233"
           style="fill:#333333" /><circle
           class="st0"
           cx="309.20001"
           cy="230"
           r="6.8000002"
           id="circle235"
           style="fill:#333333" /><path
           class="st0"
           d="m 297.9,250.2 c 3.7,0 6.8,-3 6.8,-6.8 0,-3.7 -3,-6.8 -6.8,-6.8 -3.7,0 -6.8,3 -6.8,6.8 0.1,3.8 3.1,6.8 6.8,6.8 z"
           id="path237"
           inkscape:connector-curvature="0"
           style="fill:#333333" /><path
           class="st0"
           d="m 308.2,266.1 c 3.7,0 6.8,-3 6.8,-6.7 0,-3.7 -3,-6.8 -6.8,-6.8 -3.7,0 -6.8,3 -6.8,6.8 0,3.7 3,6.7 6.8,6.7 z"
           id="path239"
           inkscape:connector-curvature="0"
           style="fill:#333333" /><path
           class="st0"
           d="m 295.6,281.9 c 3.7,0 6.8,-3 6.8,-6.8 0,-3.7 -3,-6.8 -6.8,-6.8 -3.7,0 -6.8,3 -6.8,6.8 0,3.8 3.1,6.8 6.8,6.8 z"
           id="path241"
           inkscape:connector-curvature="0"
           style="fill:#333333" /><path
           class="st0"
           d="m 271,279.3 c 3.7,0 6.8,-3 6.8,-6.8 0,-3.7 -3,-6.8 -6.8,-6.8 -3.8,0 -6.8,3 -6.8,6.8 0,3.8 3.1,6.8 6.8,6.8 z"
           id="path243"
           inkscape:connector-curvature="0"
           style="fill:#333333" /><path
           class="st0"
           d="m 261.4,261.3 c 3.7,0 6.8,-3 6.8,-6.8 0,-3.7 -3,-6.8 -6.8,-6.8 -3.7,0 -6.8,3 -6.8,6.8 0,3.8 3.1,6.8 6.8,6.8 z"
           id="path245"
           inkscape:connector-curvature="0"
           style="fill:#333333" /><circle
           class="st0"
           cx="285"
           cy="257.5"
           r="6.8000002"
           id="circle247"
           style="fill:#333333" /><path
           class="st0"
           d="m 281.3,240.7 c 0,-3.7 -3,-6.8 -6.8,-6.8 -3.7,0 -6.8,3 -6.8,6.8 0,3.7 3,6.8 6.8,6.8 3.8,-0.1 6.8,-3.1 6.8,-6.8 z"
           id="path249"
           inkscape:connector-curvature="0"
           style="fill:#333333" /><path
           class="st0"
           d="m 287.1,235.2 c 3.7,0 6.8,-3 6.8,-6.8 0,-3.7 -3,-6.8 -6.8,-6.8 -3.7,0 -6.8,3 -6.8,6.8 0.1,3.7 3.1,6.8 6.8,6.8 z"
           id="path251"
           inkscape:connector-curvature="0"
           style="fill:#333333" /><path
           class="st0"
           d="m 298.9,223.5 c 3.7,0 6.8,-3 6.8,-6.8 0,-3.7 -3,-6.8 -6.8,-6.8 -3.7,0 -6.8,3 -6.8,6.8 0.1,3.8 3.1,6.8 6.8,6.8 z"
           id="path253"
           inkscape:connector-curvature="0"
           style="fill:#333333" /><path
           class="st0"
           d="m 253.4,268.5 c 0,-3.7 -3,-6.8 -6.8,-6.8 -3.8,0 -6.8,3 -6.8,6.8 0,3.7 3,6.8 6.8,6.8 3.8,0 6.8,-3.1 6.8,-6.8 z"
           id="path255"
           inkscape:connector-curvature="0"
           style="fill:#333333" /><path
           class="st0"
           d="m 256.7,282.5 c -3.7,0 -6.8,3 -6.8,6.8 0,3.7 3,6.8 6.8,6.8 3.7,0 6.8,-3 6.8,-6.8 0,-3.8 -3,-6.8 -6.8,-6.8 z"
           id="path257"
           inkscape:connector-curvature="0"
           style="fill:#333333" /><path
           class="st0"
           d="m 232.3,277.5 c -3.7,0 -6.8,3 -6.8,6.8 0,3.7 3,6.8 6.8,6.8 3.7,0 6.8,-3 6.8,-6.8 -0.1,-3.7 -3.1,-6.8 -6.8,-6.8 z"
           id="path259"
           inkscape:connector-curvature="0"
           style="fill:#333333" /><path
           class="st0"
           d="m 282.2,285.2 c -3.7,0 -6.8,3 -6.8,6.8 0,3.7 3,6.8 6.8,6.8 3.8,0 6.8,-3 6.8,-6.8 -0.1,-3.7 -3.1,-6.8 -6.8,-6.8 z"
           id="path261"
           inkscape:connector-curvature="0"
           style="fill:#333333" /><path
           class="st0"
           d="m 342.6,141 c -3.7,0 -6.8,3 -6.8,6.8 0,3.7 3,6.8 6.8,6.8 3.7,0 6.8,-3 6.8,-6.8 0,-3.8 -3.1,-6.8 -6.8,-6.8 z"
           id="path263"
           inkscape:connector-curvature="0"
           style="fill:#333333" /><path
           class="st0"
           d="m 390.5,146.6 c 0,3.7 3,6.8 6.8,6.8 3.7,0 6.8,-3 6.8,-6.8 0,-3.7 -3,-6.8 -6.8,-6.8 -3.8,0 -6.8,3.1 -6.8,6.8 z"
           id="path265"
           inkscape:connector-curvature="0"
           style="fill:#333333" /><path
           class="st0"
           d="m 382.3,153.7 c -3.7,0 -6.8,3 -6.8,6.8 0,3.7 3,6.8 6.8,6.8 3.7,0 6.8,-3 6.8,-6.8 -0.1,-3.8 -3.1,-6.8 -6.8,-6.8 z"
           id="path267"
           inkscape:connector-curvature="0"
           style="fill:#333333" /><path
           class="st0"
           d="m 399.8,177.6 c 3.7,0 6.8,-3 6.8,-6.8 0,-3.7 -3,-6.8 -6.8,-6.8 -3.7,0 -6.8,3 -6.8,6.8 0,3.8 3,6.8 6.8,6.8 z"
           id="path269"
           inkscape:connector-curvature="0"
           style="fill:#333333" /><path
           class="st0"
           d="m 400.8,188.5 c -3.7,0 -6.7,3 -6.7,6.8 0,3.7 3,6.8 6.7,6.8 3.7,0 6.8,-3 6.8,-6.8 0,-3.8 -3,-6.8 -6.8,-6.8 z"
           id="path271"
           inkscape:connector-curvature="0"
           style="fill:#333333" /><path
           class="st0"
           d="m 377.1,183.6 c 0,3.7 3,6.7 6.8,6.7 3.7,0 6.8,-3 6.8,-6.7 0,-3.7 -3,-6.8 -6.8,-6.8 -3.8,0 -6.8,3.1 -6.8,6.8 z"
           id="path273"
           inkscape:connector-curvature="0"
           style="fill:#333333" /><circle
           class="st0"
           cx="368.20001"
           cy="173.2"
           r="6.8000002"
           id="circle275"
           style="fill:#333333" /></g></g><g
       id="g277"><g
         id="g279"><path
           class="st0"
           d="m 165.8,516.4 c -9.1,-2.3 -13.7,-3.3 -13.7,-9.1 0,-5.2 4.1,-8.5 10.4,-8.5 9.3,0 10,7.4 10.2,9.6 l 13,0 c 0,-2.1 0,-7.2 -3.6,-11.7 -4.7,-5.9 -12.5,-7.4 -19,-7.4 -17.5,0 -24.9,9.2 -24.9,19.5 0,10.9 8.2,15.3 23.2,19 8,1.9 11.9,2.9 11.9,8.5 0,5.3 -4.6,8.8 -11.9,8.8 -11.6,0 -11.4,-9 -11.4,-11.9 l -13.8,0 c 0.1,6.1 0.3,21.6 24.4,21.6 17.4,0 26.8,-9.2 26.8,-20.5 0.1,-12.3 -10.7,-15.3 -21.6,-17.9 z"
           id="path281"
           inkscape:connector-curvature="0"
           style="fill:#333333" /><path
           class="st0"
           d="m 213.2,496.2 -12.8,4.7 0,8.7 -8.4,0 0,8.5 8.5,0 0,24.1 c 0,3.7 0,11.9 13,11.9 2.1,0 5.8,-0.3 10,-1.4 l 0,-8.4 c -1.6,0.2 -2.4,0.3 -4.3,0.3 -5.8,0 -5.8,-2.5 -5.8,-6.5 l 0,-19.9 10.4,0 0,-8.5 -10.4,0 -0.2,-13.5 0,0 z"
           id="path283"
           inkscape:connector-curvature="0"
           style="fill:#333333" /><path
           class="st0"
           d="m 271.8,538.3 0,-29 -13.3,0 0,22.2 c 0,7.5 0,13.7 -8.3,13.7 -6.9,0 -6.9,-5.8 -6.9,-9.7 l 0,-26.2 -13.1,0 0,27.4 c 0,2.2 0,8.3 2.9,11.8 2.5,3.2 7.3,5.9 13.3,5.9 8.4,0 11.7,-5.1 13,-7 l 0.4,5.8 12.5,0 c -0.2,-1.2 -0.3,-2 -0.4,-3.2 0.1,-1.1 0,-2.2 -0.1,-11.7 z"
           id="path285"
           inkscape:connector-curvature="0"
           style="fill:#333333" /><path
           class="st0"
           d="m 331.9,496.2 -12.8,4.7 0,8.6 -18.9,0 0,-13.3 -12.8,4.7 0,8.6 -8.4,0 0,8.5 8.5,0 0,24.1 c 0,3.7 0,11.8 13,11.8 2.1,0 5.8,-0.3 10,-1.4 l 0,-8.5 c -1.6,0.2 -2.4,0.3 -4.4,0.3 -5.7,0 -5.7,-2.5 -5.8,-6.5 l 0,-19.9 18.9,0 0,24.1 c 0,3.7 0,11.8 13,11.8 2.1,0 5.8,-0.3 10,-1.4 l 0,-8.5 c -1.6,0.2 -2.4,0.3 -4.4,0.3 -5.7,0 -5.7,-2.5 -5.8,-6.5 l 0,-19.9 10.4,0 0,-8.5 -10.4,0 0,-13.1 z"
           id="path287"
           inkscape:connector-curvature="0"
           style="fill:#333333" /><path
           class="st0"
           d="M 379.3,515.3 C 378,513.4 375,509 367,509 c -12.6,0 -18.8,10.6 -18.8,21.8 0,10.6 5.9,21.6 18.6,21.6 3.1,0 7.7,-0.6 11.8,-6 -0.1,6.7 -0.1,8.3 -0.6,10.4 -0.9,3.9 -4.2,5.8 -8,5.8 -6.9,0 -7.5,-4.8 -7.6,-6.1 l -12.4,0 c 0.8,13.3 13.1,14.1 19.4,14.1 8.4,0 22,-1.6 22,-17.8 l 0,-32.5 c 0,-4.4 0.3,-7.4 0.6,-10.9 l -12.1,0 -0.6,5.9 z m -9.6,28.3 c -8.6,0 -8.6,-10.6 -8.6,-12.8 0,-9.4 4,-13.2 8.9,-13.2 7.9,0 8.8,8.4 8.8,13.4 0,2 0,12.6 -9.1,12.6 z"
           id="path289"
           inkscape:connector-curvature="0"
           style="fill:#333333" /><path
           class="st0"
           d="m 437.9,524.5 c 0,-2 -0.1,-7.2 -3.1,-10.8 -4.3,-5.1 -12,-5.7 -15.7,-5.7 -4.2,0 -9.3,0.7 -13.3,3.6 -4.6,3.3 -4.9,8 -4.9,10.4 l 12.6,0 c 0,-1 0,-2.4 1,-3.9 1.1,-1.6 3,-2.4 4.9,-2.4 1.2,0 4.6,0.5 5.7,3.7 0.5,1.6 0.6,3 0.6,5.8 -4.3,0 -12,0 -17.4,2.5 -8.1,3.7 -9.3,10.2 -9.3,13.7 0,3.5 1.2,7 3.8,9.7 1.7,1.6 4.6,3.5 11,3.5 2.4,0 8.3,0 13.1,-7.1 0,1.3 0,3.3 0.4,6 l 11.7,0 c -0.8,-3.7 -1,-7.4 -1,-11.2 l -0.1,-17.8 z m -14.6,18.9 c -1.2,1.4 -3.1,2.5 -5.5,2.5 -4.3,0 -6.3,-3.3 -6.3,-6.3 0,-5.2 5.9,-7.8 14.2,-7.1 0,4.8 -0.2,8.1 -2.4,10.9 z"
           id="path291"
           inkscape:connector-curvature="0"
           style="fill:#333333" /><path
           class="st0"
           d="m 504.2,518.1 0,-8.5 -10.5,0 0,-13.3 -12.8,4.7 0,8.7 -8.4,0 0,0 c -8.3,0.3 -11,4.6 -12.5,8 l -0.3,-8.4 -12.1,0 c 0.3,2.5 0.6,8.9 0.6,11 l 0,33.2 12.9,0 0,-21.7 c 0,-5.5 -0.2,-13.5 13.8,-13.5 l 5.9,0 0,24.1 c 0,3.7 0,11.8 13,11.8 2.1,0 5.8,-0.3 10,-1.4 l 0,-8.5 c -1.6,0.2 -2.4,0.3 -4.4,0.3 -5.8,0 -5.8,-2.5 -5.8,-6.5 l 0,-19.9 10.6,-0.1 0,0 0,0 0,0 z"
           id="path293"
           inkscape:connector-curvature="0"
           style="fill:#333333" /></g><g
         id="g295"><g
           id="g297"><path
             class="st0"
             d="m 103.9,427.2 c 0,6.4 -0.7,8.9 -2,10.8 -3.5,5.5 -10.1,5.6 -12.3,5.6 -13.3,0 -13.8,-8.7 -13.8,-15.7 l 0,-40 -13.7,0 0,39.3 c 0,5.9 0.2,10.8 3.3,15.7 6,9.6 17.6,11 24,11 12.8,0 27.9,-6.1 27.9,-25 l 0,-40.9 -13.3,0 0,39.2 z"
             id="path299"
             inkscape:connector-curvature="0"
             style="fill:#333333" /><path
             class="st0"
             d="m 153.9,406.1 c -9.7,0 -13.2,5.7 -14.4,7.8 l -0.4,-6.7 -12.5,0 c 0.3,3.1 0.3,7.9 0.3,8.1 l 0,36.5 13.1,0 0,-26.1 c 0,-3.5 0.8,-5.6 1.6,-6.8 1.4,-2.1 4,-3.4 6.8,-3.4 3.4,0 5.4,1.8 6.4,3.8 0.7,1.4 0.7,3 0.7,4.9 l 0,27.7 13.3,0 0,-24.1 c 0,-8.3 -0.3,-10.6 -1.2,-13.3 -1.3,-3.1 -5,-8.4 -13.7,-8.4 z"
             id="path301"
             inkscape:connector-curvature="0"
             style="fill:#333333" /><rect
             x="178.60001"
             y="407.20001"
             class="st0"
             width="13"
             height="44.599998"
             id="rect303"
             style="fill:#333333" /><polygon
             class="st0"
             points="214.2,451.8 228.6,451.8 244.6,407.3 232,407.3 221.8,437.5 211.8,407.3 197.9,407.3 "
             id="polygon305"
             style="fill:#333333" /><path
             class="st0"
             d="m 268.8,405.8 c -4.8,0 -9.1,1.4 -12.5,3.7 -7.5,5.2 -9.3,13.8 -9.3,21 0,7.1 1.7,13.1 5.7,17.3 4.7,4.8 11.9,5.5 15.7,5.5 6.5,0 12.3,-1.7 15.6,-5.2 3.6,-3.8 4,-7.6 4.2,-9.7 l -11.9,0 c -1.2,5 -4.5,6.2 -7.8,6.2 -9.1,0 -9.1,-9 -9.1,-11.9 l 29.9,0 c 0.2,-3.7 0.3,-10.2 -2.6,-16.3 -3.9,-8.1 -11.5,-10.6 -17.9,-10.6 z m -8.8,18.9 c 0.3,-5.2 2.6,-9.9 8.4,-9.9 7.6,0 7.7,7.9 7.7,9.9 l -16.1,0 z"
             id="path307"
             inkscape:connector-curvature="0"
             style="fill:#333333" /><path
             class="st0"
             d="m 309.7,415.7 -0.3,-8.5 -12.2,0 c 0.3,2.5 0.6,9 0.6,11.1 l 0,33.5 13,0 0,-21.9 c 0,-5.5 0.8,-12.3 14,-11.1 l 0,-11.7 c -10.5,-0.6 -13.4,4.8 -15.1,8.6 z"
             id="path309"
             inkscape:connector-curvature="0"
             style="fill:#333333" /><path
             class="st0"
             d="m 355.9,425.4 -8,-2.2 c -3.9,-1 -6.1,-1.7 -6.1,-4.7 0,-2.7 2.6,-4.4 6.2,-4.4 2,0 6,0.4 6.4,5.3 l 11.9,0 c -0.4,-8.9 -7.7,-13.1 -16.9,-13.1 -11.5,0 -19.4,5.3 -19.4,13.9 0,9.1 7.6,11.3 11.3,12.3 l 8.1,2.2 c 5.1,1.4 6.2,3 6.2,5 0,2.7 -2.2,5.3 -6.9,5.3 -5.5,0 -7.2,-3.2 -7.4,-6.1 l -12.3,0 c 0.1,2.1 0.4,5.6 3.3,8.7 4.1,4.2 9.5,5.5 15.3,5.5 13.8,0 20.4,-7.7 20.4,-15.4 -0.2,-6 -4,-10.1 -12.1,-12.3 z"
             id="path311"
             inkscape:connector-curvature="0"
             style="fill:#333333" /><rect
             x="376.10001"
             y="407.20001"
             class="st0"
             width="13"
             height="44.599998"
             id="rect313"
             style="fill:#333333" /><path
             class="st0"
             d="m 417.9,391.7 -13,2.4 0,13.5 -8.5,0 0,8.6 8.5,0 0,24.4 c 0,3.7 0,12 13.1,12 2.1,0 5.9,-0.3 10.1,-1.4 l 0,-8.5 c -1.6,0.2 -2.4,0.3 -4.4,0.3 -5.8,0 -5.8,-2.6 -5.9,-6.6 l 0,-20.1 10.6,0 0,-8.6 -10.6,0 0,-16 z"
             id="path315"
             inkscape:connector-curvature="0"
             style="fill:#333333" /><path
             class="st0"
             d="m 382.7,387.5 c -3.9,0 -7,3.2 -7,7 0,3.9 3.1,7 7,7 3.9,0 7,-3.2 7,-7 0,-3.8 -3.1,-7 -7,-7 z"
             id="path317"
             inkscape:connector-curvature="0"
             style="fill:#333333" /><path
             class="st0"
             d="m 185.1,387.5 c -3.9,0 -7,3.2 -7,7 0,3.9 3.1,7 7,7 3.9,0 7,-3.2 7,-7 0,-3.8 -3.1,-7 -7,-7 z"
             id="path319"
             inkscape:connector-curvature="0"
             style="fill:#333333" /></g><g
           id="g321"><path
             class="st0"
             d="m 447.3,407.1 11.5,30.7 11.1,-30.7 13.5,0 -25.6,61.1 -13.2,0 7.8,-17.7 -18.6,-43.4 c -0.1,0 13.5,0 13.5,0 z"
             id="path323"
             inkscape:connector-curvature="0"
             style="fill:#333333" /><path
             class="st0"
             d="m 540,412.1 c 0.8,0.8 2.7,3 3.9,5.4 0.9,1.8 1.5,4.1 1.6,4.4 0.3,1.2 1,3.8 1,7.1 0,1.8 -0.2,3.4 -0.5,5.2 -0.6,4.2 -2.1,8.9 -6.4,13 -3.4,3.3 -8.3,5.9 -16.2,5.9 -7.6,0 -12.1,-2.2 -15.6,-5.1 -1.6,-1.5 -2.6,-2.7 -3,-3.2 -2.4,-3.2 -4.2,-8 -4.2,-15.5 0,-1.8 0,-5.5 2.1,-10.2 0.8,-2 1.6,-3.5 3.3,-5.5 3.3,-3.7 8.5,-7.1 16.6,-7.5 1.6,-0.1 8,-0.3 13.8,3.2 0.8,0.4 1.3,0.9 2,1.4 l 1.6,1.4 z m -21.9,4.6 c -1.2,1 -1.8,1.9 -2.2,2.4 -1.5,2.4 -2.5,6 -2.5,11.5 0,0.4 -0.4,7 3.1,10.9 0.3,0.3 1.2,1.2 1.8,1.7 1,0.6 2.7,1.5 5.1,1.5 0.5,0 1.4,-0.1 2.5,-0.4 3,-1 4.7,-3.3 5.5,-4.7 2.2,-3.8 2.1,-10.3 2.1,-10.6 0,-0.7 0,-5.2 -1.5,-8.5 -0.7,-1.6 -1.5,-2.5 -2,-3 -0.8,-0.9 -1.6,-1.4 -2,-1.6 -0.7,-0.4 -2.7,-1.2 -5,-1.1 -2.4,0.1 -4.1,1.2 -4.9,1.9 z"
             id="path325"
             inkscape:connector-curvature="0"
             style="fill:#333333" /><path
             class="st0"
             d="m 578.2,397.9 c -2.9,-0.1 -5.2,0 -6.4,0.3 -2.5,0.7 -2.5,3.5 -2.5,5 l 0,4.1 8.3,0 0,8.5 -8.2,0 0,36.1 -12.7,0 0,-36.1 -8.2,0 0,-8.5 8.3,0 0,-5.1 c 0,-0.3 0.1,-3.8 1.1,-6.2 2,-5.1 6.4,-6.8 14.3,-6.8 2,0 4.1,0.2 6.2,0.3 l -0.2,8.4 z"
             id="path327"
             inkscape:connector-curvature="0"
             style="fill:#333333" /></g></g></g></g></svg>